<?xml version="1.0" encoding="UTF-8"?>
<svg xmlns="http://www.w3.org/2000/svg" xmlns:xlink="http://www.w3.org/1999/xlink"
     width="500" height="500" viewBox="-100.0 -100.0 200 200">
<defs>
</defs>
<!--<rect x="-100.0" y="-100.0" width="200" height="200" fill="#232321" />-->
<circle cx="0" cy="0" r="85.0" fill="#282828" />
<path d="M0,3.5500000000000003 L-3.7,7.25 L-3.7,0 L-3.7,49.7 L-10.0,49.7 L0,71.0 L10.0,49.7 L3.7,49.7 L3.7,7.25 Z" fill="#6b9bff" transform="rotate(0)" />
<path d="M0,3.5500000000000003 L-3.7,7.25 L-3.7,0 L-3.7,49.7 L-10.0,49.7 L0,71.0 L10.0,49.7 L3.7,49.7 L3.7,7.25 Z" fill="#ffff00" transform="rotate(90)" />
<path d="M0,3.5500000000000003 L-3.7,7.25 L-3.7,0 L-3.7,49.7 L-10.0,49.7 L0,71.0 L10.0,49.7 L3.7,49.7 L3.7,7.25 Z" fill="#ff0000" transform="rotate(180)" />
<path d="M0,3.5500000000000003 L-3.7,7.25 L-3.7,0 L-3.7,49.7 L-10.0,49.7 L0,71.0 L10.0,49.7 L3.7,49.7 L3.7,7.25 Z" fill="#5dd55d" transform="rotate(270)" />
</svg>